<?xml version="1.0" encoding="iso-8859-1"?>
<!-- Generator: Adobe Illustrator 19.0.0, SVG Export Plug-In . SVG Version: 6.00 Build 0)  -->
<svg version="1.1" id="Capa_1" xmlns="http://www.w3.org/2000/svg" xmlns:xlink="http://www.w3.org/1999/xlink" x="0px" y="0px"
	 viewBox="0 0 454.23 454.23" style="enable-background:new 0 0 454.23 454.23;" xml:space="preserve">
<g>
	<g id="XMLID_12_">
		<circle id="XMLID_13_" cx="72.623" cy="92.112" r="32.053"/>
		<circle id="XMLID_439_" cx="381.608" cy="90.552" r="32.054"/>
		<path id="XMLID_440_" d="M443.192,160.689c-6.097,0-11.039,4.942-11.039,11.039v109.964h-18.417
			c0.07-0.89,8.023-118.702,8.023-118.702c0.792-11.932-8.24-22.247-20.172-23.039l-38.53-2.556
			c-11.932-0.792-22.247,8.24-23.039,20.172l-1.272,19.175l22.731-17.763l-28.453,37.523l-50.138-3.125
			c-8.01-0.51-14.899,5.586-15.397,13.591c-0.307,4.917,1.877,9.407,5.457,12.261h-89.993c2.568-2.806,4.044-6.604,3.788-10.701
			c-0.499-8.005-7.389-14.104-15.397-13.591l-50.138,3.124l-28.453-37.523l22.732,17.763l-1.272-19.175
			c-0.792-11.933-11.107-20.964-23.039-20.172l-38.53,2.556c-11.932,0.792-20.964,11.107-20.172,23.04l7.658,118.701H22.078V173.289
			c0-6.097-4.942-11.039-11.039-11.039S0,167.192,0,173.289v121.002c0,6.097,4.942,11.039,11.039,11.039c22.612,0,82.707,0,92.778,0
			l15.121,6.228l-49.936,55.029c-6.467,7.128-5.933,18.148,1.195,24.616c7.139,6.479,18.16,5.92,24.617-1.194l66.609-73.405
			c3.815-4.204,5.343-10.003,4.095-15.541s-5.115-10.122-10.365-12.284l-68.062-28.032c8.65,1.796,61.372,12.741,73.337,15.226
			c3.286,0.682,6.316,1.919,9.011,3.592l-3.88-16.536c-1.848-7.877-8.875-13.445-16.966-13.445h-28.379l-0.516-7.775
			c-3.994,0.249-2.111,0.132-9.622,0.6c-8.381,0.522-15.845-4.466-18.881-11.818l-21.584-52.5l33.156,43.726
			c2.755,3.634,7.044,5.748,11.57,5.748c0.556,0-1.647,0.135,27.774-1.701c-0.378,1.054-0.594,2.184-0.594,3.368
			c0,5.522,4.477,10,10,10h65.598v119.962c-11.248,1.048-20.898,3.821-27.204,7.612l-11.5-49.005
			c-1.812,2.928-0.402,1.138-28.315,31.898l7.646,32.583c2.199,9.374,11.583,15.184,20.947,12.984
			c4.705-1.104,8.511-4.019,10.858-7.834c8.062,5,21.874,8.299,37.568,8.299c16.184,0,30.369-3.509,38.308-8.773
			c2.371,3.274,5.873,5.752,10.118,6.748c9.366,2.198,18.748-3.613,20.947-12.984l2.794-11.905l-23.522-52.323l-11.762,50.126
			c-6.31-3.694-15.821-6.395-26.882-7.425V239.229h67.237c5.523,0,10-4.478,10-10c0-1.769-0.463-3.427-1.269-4.869l25.905,1.615
			c4.93,0.302,9.577-1.897,12.475-5.72l33.156-43.727l-21.584,52.501c-3.193,7.767-10.911,12.307-18.85,11.825
			c-7.315-0.462-5.167-0.327-9.654-0.607l-0.516,7.774h-28.379c-6.284,0-11.915,3.368-14.987,8.56
			c1.401-0.058,2.795-0.024,4.161,0.122c13.858,1.527,58.066,6.396,74.453,8.202l-73.398,5.609
			c-5.66,0.433-10.755,3.595-13.655,8.476c-2.9,4.881-3.239,10.868-0.912,16.046l40.643,90.406c3.95,8.787,14.27,12.693,23.04,8.749
			c8.778-3.946,12.695-14.262,8.749-23.04l-30.469-67.775l16.539-1.264c21.554,0.791,103.39,1.658,103.39,1.658
			c6.097,0,11.039-4.942,11.039-11.039V171.728C454.231,165.632,449.289,160.689,443.192,160.689z"/>
	</g>
</g>
<g>
</g>
<g>
</g>
<g>
</g>
<g>
</g>
<g>
</g>
<g>
</g>
<g>
</g>
<g>
</g>
<g>
</g>
<g>
</g>
<g>
</g>
<g>
</g>
<g>
</g>
<g>
</g>
<g>
</g>
</svg>
